<svg width="512" height="512" viewBox="0 0 512 512" fill="none" xmlns="http://www.w3.org/2000/svg">
<rect x="56" y="56" width="400" height="400" rx="92" fill="#09090B"/>
<rect x="56" y="56" width="400" height="400" rx="92" stroke="#27272A" stroke-width="4"/>
<path d="M256 132C223.968 132 200 155.968 200 188V252C200 284.032 223.968 308 256 308C288.032 308 312 284.032 312 252V188C312 155.968 288.032 132 256 132Z" fill="#FAFAFA"/>
<path d="M256 148C232.982 148 216 164.982 216 188V252C216 275.018 232.982 292 256 292C279.018 292 296 275.018 296 252V188C296 164.982 279.018 148 256 148Z" fill="#18181B"/>
<path d="M230 164H282C289.732 164 296 170.268 296 178V236C296 259 278 279 256 285C231 279 216 259 216 236V178C216 170.268 222.268 164 230 164Z" fill="#EF4444"/>
<path d="M170 234C170 282.601 207.399 320 256 320C304.601 320 342 282.601 342 234" stroke="#FAFAFA" stroke-width="20" stroke-linecap="round"/>
<path d="M256 320V370" stroke="#FAFAFA" stroke-width="20" stroke-linecap="round"/>
<path d="M215 370H297" stroke="#FAFAFA" stroke-width="20" stroke-linecap="round"/>
<path d="M326 172H380" stroke="#F87171" stroke-width="18" stroke-linecap="round"/>
<path d="M326 224H398" stroke="#F87171" stroke-width="18" stroke-linecap="round"/>
</svg>